<svg width="174" height="29" viewBox="0 0 174 29" fill="none" xmlns="http://www.w3.org/2000/svg">
<path d="M15.8396 0.75899C15.7736 2.14499 15.7186 3.45399 15.6746 4.68599C15.6526 5.91799 15.6306 7.13899 15.6086 8.34899C15.5866 9.53699 15.5646 10.747 15.5426 11.979C15.5426 13.189 15.5426 14.487 15.5426 15.873C15.5426 17.501 15.5426 19.272 15.5426 21.186C15.5646 23.1 15.5866 25.289 15.6086 27.753H10.1306C10.1746 26.433 10.2076 25.058 10.2296 23.628C10.2516 22.176 10.2736 20.526 10.2956 18.678H5.4116C5.4116 19.976 5.4116 21.373 5.4116 22.869C5.4336 24.343 5.4556 25.971 5.4776 27.753H-0.00039842C0.0216016 26.785 0.0436016 25.795 0.0656016 24.783C0.0876016 23.771 0.109602 22.682 0.131602 21.516C0.153602 20.35 0.164602 19.074 0.164602 17.688C0.164602 16.302 0.164602 14.762 0.164602 13.068C0.164602 11.572 0.164602 10.285 0.164602 9.20699C0.164602 8.10699 0.153602 7.10599 0.131602 6.20399C0.131602 5.30199 0.131602 4.43299 0.131602 3.59699C0.131602 2.73899 0.131602 1.79299 0.131602 0.75899H5.7086C5.6206 2.58499 5.5546 4.27899 5.5106 5.84099C5.4666 7.38099 5.4336 8.94299 5.4116 10.527H10.2956C10.2956 9.51499 10.2956 8.60199 10.2956 7.78799C10.2956 6.95199 10.2846 6.15999 10.2626 5.41199C10.2626 4.64199 10.2626 3.89399 10.2626 3.16799C10.2626 2.41999 10.2626 1.61699 10.2626 0.75899H15.8396ZM33.4054 27.753H28.8844V26.136C28.0924 26.774 27.2564 27.269 26.3764 27.621C25.4964 27.951 24.6384 28.116 23.8024 28.116C22.8124 28.116 21.8994 27.874 21.0634 27.39C20.2274 26.906 19.5014 26.235 18.8854 25.377C18.2914 24.497 17.8184 23.452 17.4664 22.242C17.1144 21.032 16.9384 19.712 16.9384 18.282C16.9384 16.786 17.1254 15.389 17.4994 14.091C17.8734 12.793 18.3794 11.671 19.0174 10.725C19.6774 9.75699 20.4474 9.00899 21.3274 8.48099C22.2294 7.93099 23.1974 7.65599 24.2314 7.65599C25.1334 7.65599 25.9914 7.85399 26.8054 8.24999C27.6194 8.62399 28.3124 9.09699 28.8844 9.66899V8.01899H33.5704L33.4054 27.753ZM23.2414 15.84C23.2414 16.742 23.4834 17.468 23.9674 18.018C24.4734 18.568 25.1114 18.843 25.8814 18.843C26.7174 18.843 27.4214 18.546 27.9934 17.952C28.5874 17.358 28.8844 16.599 28.8844 15.675C28.8844 15.257 28.8074 14.861 28.6534 14.487C28.5214 14.113 28.3234 13.794 28.0594 13.53C27.7954 13.244 27.4874 13.024 27.1354 12.87C26.7834 12.716 26.4094 12.639 26.0134 12.639C25.2214 12.639 24.5614 12.936 24.0334 13.53C23.5054 14.124 23.2414 14.894 23.2414 15.84ZM51.13 27.753H46.609V26.136C45.817 26.774 44.981 27.269 44.101 27.621C43.221 27.951 42.363 28.116 41.527 28.116C40.537 28.116 39.624 27.874 38.788 27.39C37.952 26.906 37.226 26.235 36.61 25.377C36.016 24.497 35.543 23.452 35.191 22.242C34.839 21.032 34.663 19.712 34.663 18.282C34.663 16.786 34.85 15.389 35.224 14.091C35.598 12.793 36.104 11.671 36.742 10.725C37.402 9.75699 38.172 9.00899 39.052 8.48099C39.954 7.93099 40.922 7.65599 41.956 7.65599C42.858 7.65599 43.716 7.85399 44.53 8.24999C45.344 8.62399 46.037 9.09699 46.609 9.66899V8.01899H51.295L51.13 27.753ZM40.966 15.84C40.966 16.742 41.208 17.468 41.692 18.018C42.198 18.568 42.836 18.843 43.606 18.843C44.442 18.843 45.146 18.546 45.718 17.952C46.312 17.358 46.609 16.599 46.609 15.675C46.609 15.257 46.532 14.861 46.378 14.487C46.246 14.113 46.048 13.794 45.784 13.53C45.52 13.244 45.212 13.024 44.86 12.87C44.508 12.716 44.134 12.639 43.738 12.639C42.946 12.639 42.286 12.936 41.758 13.53C41.23 14.124 40.966 14.894 40.966 15.84ZM59.9776 7.65599C62.6616 7.65599 64.5756 8.53599 65.7196 10.296C66.8856 12.056 67.4686 14.586 67.4686 17.886C67.4686 21.208 66.8856 23.749 65.7196 25.509C64.5756 27.247 62.6616 28.116 59.9776 28.116C57.2716 28.116 55.3356 27.247 54.1696 25.509C53.0256 23.749 52.4536 21.208 52.4536 17.886C52.4536 14.586 53.0256 12.056 54.1696 10.296C55.3356 8.53599 57.2716 7.65599 59.9776 7.65599ZM59.9776 20.361C60.4176 20.361 60.8026 20.273 61.1326 20.097C61.4846 19.921 61.7706 19.69 61.9906 19.404C62.2106 19.118 62.3756 18.799 62.4856 18.447C62.5956 18.073 62.6506 17.688 62.6506 17.292C62.6506 16.896 62.5956 16.511 62.4856 16.137C62.3756 15.763 62.2106 15.433 61.9906 15.147C61.7706 14.861 61.4846 14.63 61.1326 14.454C60.8026 14.278 60.4176 14.19 59.9776 14.19C59.0756 14.19 58.3936 14.509 57.9316 15.147C57.4916 15.785 57.2716 16.5 57.2716 17.292C57.2716 17.688 57.3266 18.073 57.4366 18.447C57.5466 18.799 57.7116 19.118 57.9316 19.404C58.1736 19.69 58.4596 19.921 58.7896 20.097C59.1196 20.273 59.5156 20.361 59.9776 20.361ZM68.6406 0.857989C69.8946 0.68199 71.0936 0.56099 72.2376 0.49499C73.3816 0.406989 74.3606 0.362989 75.1746 0.362989C77.1106 0.362989 78.8926 0.626989 80.5206 1.15499C82.1486 1.68299 83.5786 2.62899 84.8106 3.99299C85.9326 5.26899 86.7686 6.81999 87.3186 8.64599C87.8686 10.45 88.1436 12.397 88.1436 14.487C88.1436 16.533 87.8796 18.392 87.3516 20.064C86.8236 21.736 86.0096 23.166 84.9096 24.354C83.8316 25.542 82.4676 26.466 80.8176 27.126C79.1676 27.786 77.2206 28.116 74.9766 28.116C74.4706 28.116 73.6456 28.094 72.5016 28.05C71.3796 28.006 70.1366 27.907 68.7726 27.753C68.7946 26.741 68.8056 25.762 68.8056 24.816C68.8276 23.848 68.8386 22.902 68.8386 21.978C68.8606 21.032 68.8716 20.086 68.8716 19.14C68.8716 18.194 68.8716 17.215 68.8716 16.203C68.8716 13.321 68.8496 10.56 68.8056 7.91999C68.7836 5.27999 68.7286 2.92599 68.6406 0.857989ZM75.0426 5.84099C74.8226 5.84099 74.6136 5.85199 74.4156 5.87399C74.2396 5.89599 74.0636 5.91799 73.8876 5.93999C73.8656 6.97399 73.8546 8.00799 73.8546 9.04199C73.8546 10.054 73.8546 11.077 73.8546 12.111C73.8546 12.617 73.8546 13.156 73.8546 13.728C73.8766 14.3 73.8876 14.894 73.8876 15.51C73.9096 16.104 73.9316 16.709 73.9536 17.325C73.9756 17.919 73.9866 18.48 73.9866 19.008C74.1846 19.052 74.3826 19.085 74.5806 19.107C74.7786 19.107 74.9546 19.107 75.1086 19.107C75.9226 19.107 76.6706 18.931 77.3526 18.579C78.0566 18.227 78.6616 17.754 79.1676 17.16C79.6956 16.544 80.1026 15.829 80.3886 15.015C80.6746 14.201 80.8176 13.332 80.8176 12.408C80.8176 11.726 80.7186 11 80.5206 10.23C80.3446 9.43799 80.0256 8.72299 79.5636 8.08499C79.1236 7.44699 78.5296 6.91899 77.7816 6.50099C77.0556 6.06099 76.1426 5.84099 75.0426 5.84099ZM96.0636 17.358C96.3496 18.304 96.8226 19.074 97.4826 19.668C98.1426 20.262 99.0556 20.559 100.222 20.559C100.574 20.559 100.948 20.537 101.344 20.493C101.762 20.427 102.169 20.35 102.565 20.262C102.961 20.152 103.335 20.042 103.687 19.932C104.039 19.8 104.347 19.679 104.611 19.569C104.655 20.207 104.677 20.889 104.677 21.615C104.699 22.319 104.71 23.023 104.71 23.727C104.71 24.893 104.677 25.938 104.611 26.862C102.895 27.698 100.97 28.116 98.8356 28.116C97.8456 28.116 96.8446 28.006 95.8326 27.786C94.8206 27.566 93.8416 27.148 92.8956 26.532C92.0596 25.982 91.3666 25.344 90.8166 24.618C90.2886 23.87 89.8706 23.111 89.5626 22.341C89.2546 21.549 89.0456 20.779 88.9356 20.031C88.8256 19.283 88.7706 18.612 88.7706 18.018C88.7706 17.138 88.8696 16.225 89.0676 15.279C89.2876 14.311 89.6176 13.398 90.0576 12.54C90.4976 11.66 91.0586 10.857 91.7406 10.131C92.4226 9.40499 93.2256 8.83299 94.1496 8.41499C95.2716 7.90899 96.4596 7.65599 97.7136 7.65599C99.0336 7.65599 100.222 7.91999 101.278 8.44799C102.334 8.97599 103.192 9.70199 103.852 10.626C104.49 11.506 104.886 12.485 105.04 13.563C105.216 14.641 105.304 15.906 105.304 17.358H96.0636ZM97.9446 11.22C97.4826 11.22 97.0426 11.418 96.6246 11.814C96.2066 12.188 95.9316 12.859 95.7996 13.827H100.123C100.035 12.947 99.7706 12.298 99.3306 11.88C98.9126 11.44 98.4506 11.22 97.9446 11.22ZM111.82 9.50399C112.128 9.54799 112.381 9.56999 112.579 9.56999C112.777 9.56999 112.986 9.56999 113.206 9.56999C114.394 9.56999 115.34 9.34999 116.044 8.90999C116.748 8.46999 117.1 7.88699 117.1 7.16099C117.1 6.50099 116.792 5.99499 116.176 5.64299C115.582 5.29099 114.702 5.11499 113.536 5.11499C113.162 5.11499 112.821 5.13699 112.513 5.18099C112.227 5.20299 111.996 5.24699 111.82 5.31299V9.50399ZM106.639 27.753C106.661 26.741 106.672 25.762 106.672 24.816C106.694 23.848 106.705 22.902 106.705 21.978C106.727 21.032 106.738 20.086 106.738 19.14C106.738 18.194 106.738 17.215 106.738 16.203C106.738 13.321 106.716 10.56 106.672 7.91999C106.65 5.27999 106.595 2.92599 106.507 0.857989C107.739 0.68199 109.004 0.56099 110.302 0.49499C111.6 0.406989 112.766 0.362989 113.8 0.362989C119.916 0.362989 122.974 2.13399 122.974 5.67599C122.974 7.06199 122.567 8.24999 121.753 9.23999C120.961 10.208 119.905 10.802 118.585 11.022C120.719 11.418 122.281 12.243 123.271 13.497C124.261 14.729 124.756 16.478 124.756 18.744C124.756 21.934 123.766 24.299 121.786 25.839C119.806 27.357 116.726 28.116 112.546 28.116C111.732 28.116 110.819 28.083 109.807 28.017C108.817 27.973 107.761 27.885 106.639 27.753ZM111.82 18.876C112.04 18.942 112.37 18.997 112.81 19.041C113.25 19.085 113.679 19.107 114.097 19.107C115.483 19.107 116.528 18.887 117.232 18.447C117.958 18.007 118.321 17.38 118.321 16.566C118.321 15.73 117.936 15.092 117.166 14.652C116.418 14.212 115.373 13.992 114.031 13.992C113.745 13.992 113.426 14.003 113.074 14.025C112.744 14.047 112.326 14.08 111.82 14.124V18.876ZM132.906 7.65599C135.59 7.65599 137.504 8.53599 138.648 10.296C139.814 12.056 140.397 14.586 140.397 17.886C140.397 21.208 139.814 23.749 138.648 25.509C137.504 27.247 135.59 28.116 132.906 28.116C130.2 28.116 128.264 27.247 127.098 25.509C125.954 23.749 125.382 21.208 125.382 17.886C125.382 14.586 125.954 12.056 127.098 10.296C128.264 8.53599 130.2 7.65599 132.906 7.65599ZM132.906 20.361C133.346 20.361 133.731 20.273 134.061 20.097C134.413 19.921 134.699 19.69 134.919 19.404C135.139 19.118 135.304 18.799 135.414 18.447C135.524 18.073 135.579 17.688 135.579 17.292C135.579 16.896 135.524 16.511 135.414 16.137C135.304 15.763 135.139 15.433 134.919 15.147C134.699 14.861 134.413 14.63 134.061 14.454C133.731 14.278 133.346 14.19 132.906 14.19C132.004 14.19 131.322 14.509 130.86 15.147C130.42 15.785 130.2 16.5 130.2 17.292C130.2 17.688 130.255 18.073 130.365 18.447C130.475 18.799 130.64 19.118 130.86 19.404C131.102 19.69 131.388 19.921 131.718 20.097C132.048 20.273 132.444 20.361 132.906 20.361ZM148.697 7.65599C151.381 7.65599 153.295 8.53599 154.439 10.296C155.605 12.056 156.188 14.586 156.188 17.886C156.188 21.208 155.605 23.749 154.439 25.509C153.295 27.247 151.381 28.116 148.697 28.116C145.991 28.116 144.055 27.247 142.889 25.509C141.745 23.749 141.173 21.208 141.173 17.886C141.173 14.586 141.745 12.056 142.889 10.296C144.055 8.53599 145.991 7.65599 148.697 7.65599ZM148.697 20.361C149.137 20.361 149.522 20.273 149.852 20.097C150.204 19.921 150.49 19.69 150.71 19.404C150.93 19.118 151.095 18.799 151.205 18.447C151.315 18.073 151.37 17.688 151.37 17.292C151.37 16.896 151.315 16.511 151.205 16.137C151.095 15.763 150.93 15.433 150.71 15.147C150.49 14.861 150.204 14.63 149.852 14.454C149.522 14.278 149.137 14.19 148.697 14.19C147.795 14.19 147.113 14.509 146.651 15.147C146.211 15.785 145.991 16.5 145.991 17.292C145.991 17.688 146.046 18.073 146.156 18.447C146.266 18.799 146.431 19.118 146.651 19.404C146.893 19.69 147.179 19.921 147.509 20.097C147.839 20.273 148.235 20.361 148.697 20.361ZM172.672 8.01899L167.392 17.358L173.035 27.753H167.392L162.805 19.503H162.574C162.574 20.141 162.574 20.779 162.574 21.417C162.574 22.033 162.574 22.671 162.574 23.331C162.596 23.991 162.618 24.684 162.64 25.41C162.662 26.136 162.684 26.917 162.706 27.753H157.261C157.371 25.047 157.437 22.022 157.459 18.678C157.481 15.312 157.492 11.627 157.492 7.62299C157.492 6.28099 157.492 5.19199 157.492 4.35599C157.492 3.51999 157.492 2.83799 157.492 2.30999C157.492 1.78199 157.481 1.35299 157.459 1.02299C157.459 0.692989 157.448 0.351989 157.426 -9.95398e-06H163.036C162.97 2.02399 162.915 3.84999 162.871 5.47799C162.827 7.08399 162.783 8.54699 162.739 9.86699C162.717 11.165 162.695 12.342 162.673 13.398C162.651 14.432 162.629 15.389 162.607 16.269H162.838L167.392 8.01899H172.672Z" fill="black"/>
</svg>
