<svg width="1014" height="1306" viewBox="0 0 1014 1306" fill="none" xmlns="http://www.w3.org/2000/svg">
<g clip-path="url(#clip0_1608_297)">
<rect width="1014" height="1306" fill="white"/>
<rect width="1014" height="1306" fill="#888888"/>
<rect x="283" y="1171" width="461" height="59" fill="#D9D9D9"/>
<rect x="158" y="1048" width="711" height="76" fill="#D9D9D9"/>
<circle cx="514.368" cy="689.632" r="311.368" fill="#D9D9D9"/>
<path fill-rule="evenodd" clip-rule="evenodd" d="M534.886 304C547.445 306.417 575.61 313.337 577.175 313.722C579.823 314.368 583.09 317.896 584.353 320.258C589.884 330.584 594.359 345.016 599.259 356.111C605.618 370.512 612.15 384.836 618.524 399.227C618.716 399.661 618.907 400.095 619.099 400.53C624.028 411.678 628.856 422.869 633.426 434.173C633.489 434.328 633.551 434.483 633.614 434.638C633.989 435.567 634.362 436.496 634.733 437.426C634.898 437.84 635.062 438.254 635.227 438.668C635.512 439.387 635.796 440.106 636.079 440.825C636.244 441.244 636.407 441.663 636.571 442.082C636.831 442.746 637.089 443.411 637.347 444.075C637.575 444.665 637.804 445.254 638.031 445.843C638.071 445.948 638.111 446.053 638.151 446.157C638.505 447.081 638.858 448.005 639.208 448.931C639.254 449.052 639.3 449.173 639.346 449.294C639.701 450.236 640.056 451.179 640.407 452.122L640.476 452.201C640.996 452.753 642.242 453.356 643.988 453.984C644.321 454.104 644.671 454.224 645.039 454.345C647.793 455.256 651.479 456.209 655.439 457.134C656.495 457.381 657.571 457.626 658.653 457.868C659.195 457.988 659.738 458.108 660.281 458.227C661.91 458.583 663.541 458.931 665.131 459.265C666.191 459.488 667.233 459.703 668.245 459.912C670.268 460.331 672.169 460.719 673.848 461.068C676.366 461.59 678.385 462.021 679.566 462.325C698.013 467.062 716.24 472.967 734.605 477.91C737.52 478.693 742.05 477.952 743.3 480.539C743.35 480.642 743.395 480.751 743.434 480.865C743.572 481.266 743.641 481.735 743.628 482.287C743.625 482.445 743.615 482.609 743.598 482.78C743.572 483.037 743.531 483.31 743.473 483.6L648.986 504.261C648.931 505.469 648.917 506.664 649.15 507.873C649.222 508.24 649.299 508.614 649.382 508.993C649.465 509.373 649.554 509.758 649.647 510.15C650.86 515.233 652.91 521.251 654.755 527.304C654.897 527.77 655.038 528.236 655.177 528.702C655.316 529.168 655.454 529.633 655.589 530.098C655.804 530.838 656.012 531.576 656.214 532.311C656.956 535.003 657.599 537.652 658.049 540.178C658.634 543.464 658.894 546.542 658.621 549.232C658.539 550.024 657.586 555.732 656.293 563.357C654.845 571.892 652.967 582.827 651.395 591.953C650.839 595.178 650.324 598.177 649.878 600.764L648.299 609.898L686.662 588.93H688.089C688.107 588.944 688.123 588.96 688.14 588.977C688.426 589.263 688.669 589.927 688.843 590.593C688.945 590.984 689.024 591.377 689.074 591.694C689.093 591.821 689.109 591.936 689.119 592.033C689.468 595.508 689.353 607.085 689.056 621.872C688.975 625.905 688.882 630.177 688.779 634.588C688.439 649.291 688.011 665.545 687.709 679.672C687.649 682.497 687.594 685.237 687.545 687.863C687.399 695.741 687.314 702.588 687.335 707.611C687.124 708.945 686.228 710.195 685.09 711.334C684.928 711.497 684.76 711.657 684.589 711.815C683.562 712.764 682.404 713.629 681.394 714.394C681.058 714.648 680.738 714.892 680.444 715.123C672.848 721.105 665.079 726.926 657.227 732.663C655.656 733.81 654.082 734.954 652.506 736.095C636.742 747.507 620.717 758.644 605.147 770.118L601.001 774.526C601.171 774.567 601.33 774.594 601.48 774.611C601.705 774.635 601.911 774.634 602.104 774.612C602.812 774.533 603.354 774.183 604.09 773.853C625.872 764.049 648.3 751.69 670.013 741.048C677.466 737.396 686.278 731.299 693.717 728.415C694.561 728.088 695.365 727.911 696.141 727.854C696.399 727.835 696.654 727.83 696.906 727.837C697.032 727.84 697.158 727.846 697.283 727.855C697.532 727.874 697.78 727.904 698.024 727.945C700.593 728.373 702.912 729.963 705.425 731.422C706.732 732.18 708.195 733.031 709.789 733.963C710.913 734.62 712.104 735.318 713.352 736.051C713.711 736.262 714.075 736.476 714.444 736.693C715.797 737.489 717.212 738.324 718.679 739.193C719.098 739.441 719.522 739.693 719.949 739.947C721.497 740.865 723.098 741.815 724.741 742.796C752.342 759.274 791.895 783.82 793.459 789.438C794.063 791.58 793.912 794.903 794.489 797.334C795.976 803.596 797.442 809.864 798.895 816.134C768.792 883.822 715.243 938.774 648.563 970.68C655.962 944.956 663.732 919.311 671.468 894.1C671.797 893.029 671.879 890.777 671.262 889.789C669.917 890.667 670.521 892.301 670.082 893.441C669.684 894.47 668.462 894.471 668.133 895.075C653.618 921.949 641.344 951.644 627.75 979.717C592.632 993.456 554.409 1001 514.424 1001C476.622 1001 440.393 994.257 406.876 981.911C407.621 951.089 408.473 920.283 409.065 889.486C409.207 881.843 408.077 869.509 408.824 861.183C408.83 861.11 408.836 861.037 408.843 860.965C408.859 860.794 408.877 860.625 408.894 860.458C408.905 860.354 408.917 860.251 408.928 860.149C408.946 859.991 408.965 859.836 408.985 859.682C408.999 859.569 409.014 859.456 409.029 859.345C409.084 858.946 409.143 858.561 409.21 858.189C409.214 858.163 409.219 858.136 409.224 858.11C409.261 857.909 409.3 857.712 409.34 857.519C409.602 856.275 410.261 855.161 411.19 854.15C411.333 853.995 411.482 853.842 411.637 853.691C412.18 853.164 412.796 852.666 413.463 852.192C413.654 852.057 413.849 851.924 414.047 851.793C414.644 851.399 415.274 851.022 415.926 850.66C417.013 850.058 418.159 849.496 419.307 848.964C419.766 848.751 420.225 848.543 420.681 848.339C422.96 847.318 425.151 846.395 426.785 845.477C431.187 843.009 435.696 840.529 440.25 838.034C444.804 835.54 449.403 833.032 453.986 830.507C456.278 829.245 458.566 827.979 460.842 826.709C467.671 822.898 474.395 819.05 480.808 815.157C484.294 813.043 485.736 812.452 484.652 808.278C482.899 801.527 479.605 793.595 476.215 785.817C475.838 784.953 475.46 784.091 475.083 783.232C472.821 778.081 470.588 773.065 468.813 768.58C468.593 768.026 468.374 767.473 468.156 766.922C466.11 761.766 464.112 756.733 462.159 751.696C461.85 750.9 461.543 750.103 461.236 749.306C458.782 742.929 456.397 736.517 454.071 729.816C453.665 728.657 452.934 727.746 452.405 726.768C452.158 726.312 451.954 725.841 451.849 725.324C451.819 725.176 451.796 725.025 451.783 724.869C451.731 724.244 451.827 723.547 452.149 722.73C452.33 722.273 452.524 721.905 452.731 721.603C452.813 721.483 452.898 721.373 452.984 721.273C453.461 720.721 453.997 720.454 454.576 720.246C454.997 720.094 455.441 719.974 455.902 719.798C456.248 719.666 456.604 719.502 456.967 719.27C458.182 718.491 459.378 717.765 460.568 717.069C461.162 716.722 461.755 716.381 462.347 716.045C462.939 715.71 463.53 715.379 464.123 715.05C466.492 713.736 468.874 712.452 471.351 711.017C502.624 692.943 533.959 675.294 565.234 657.386C575.66 651.416 586.079 645.418 596.486 639.366C597.248 636.694 597.86 633.94 598.412 631.154C599.33 626.512 600.078 621.781 601.056 617.189C602.151 612.054 603.264 607.209 604.182 602.416C604.515 600.674 604.823 598.938 605.094 597.197C605.365 595.457 605.599 593.713 605.787 591.953C606.304 587.112 606.466 582.151 606.058 576.832C606.04 576.591 606.019 576.348 605.998 576.105C605.936 575.375 605.863 574.638 605.778 573.894C605.685 573.086 605.337 572.187 604.789 571.237C604.515 570.762 604.19 570.274 603.823 569.777C603.64 569.529 603.445 569.278 603.241 569.026C603.139 568.9 603.034 568.774 602.927 568.648C601.644 567.128 600.02 565.566 598.244 564.088C597.652 563.595 597.043 563.112 596.425 562.643C596.057 562.365 595.686 562.092 595.313 561.825C594.901 561.529 594.487 561.24 594.071 560.96C593.858 560.816 593.643 560.675 593.43 560.535C593.227 560.403 593.024 560.274 592.822 560.146C592.703 560.071 592.585 559.997 592.466 559.924C592.31 559.828 592.155 559.733 591.999 559.639C591.037 559.061 590.089 558.542 589.182 558.099C588.442 557.738 587.729 557.429 587.057 557.178C586.881 557.113 586.708 557.051 586.538 556.994C586.474 556.972 586.41 556.951 586.346 556.931C586.043 556.834 585.751 556.751 585.469 556.683C584.833 556.529 584.256 556.45 583.753 556.461C583.471 556.467 583.213 556.501 582.981 556.565C582.209 556.777 580.707 557.553 578.81 558.648C578.511 558.822 578.201 559.002 577.883 559.191C575.956 560.33 573.715 561.728 571.454 563.173C570.594 563.723 569.731 564.281 568.88 564.834C563.397 568.394 558.465 571.752 558.426 571.779L557.067 595.796L528.326 604.048L521.971 567.879C521.971 567.879 520.019 568.078 516.825 568.413C507.242 569.419 486.477 571.649 473.671 573.399C473.562 573.499 473.41 573.631 473.221 573.795C471.204 575.533 464.822 580.791 457.304 586.951C453.95 589.699 450.37 592.627 446.851 595.502C435.284 604.953 424.375 613.831 424.315 613.88L374.409 600.369L373.229 601.851L358.433 663.781C358.762 664.508 359.297 664.673 360.038 664.797C361.095 664.965 362.816 665.077 364.878 665.152C371.066 665.378 380.332 665.278 383.978 665.399C384.151 665.405 384.312 665.412 384.459 665.419C384.754 665.433 384.993 665.448 385.171 665.467C385.259 665.476 385.333 665.486 385.389 665.497C385.436 665.505 385.483 665.516 385.53 665.529C385.624 665.554 385.72 665.588 385.816 665.628C385.864 665.648 385.913 665.67 385.961 665.694C386.009 665.717 386.057 665.742 386.106 665.769C386.252 665.849 386.398 665.942 386.544 666.044C387.701 666.86 388.764 668.264 388.779 668.284C388.792 668.366 403.274 760.135 403.672 760.739C404.324 761.046 405.289 761.428 406.484 761.85C406.962 762.019 407.477 762.195 408.023 762.375C409.934 763.004 412.227 763.686 414.669 764.325C415.368 764.508 416.078 764.686 416.795 764.86C420.917 765.858 425.264 766.669 428.802 766.873C429.11 766.891 429.411 766.904 429.705 766.912C429.853 766.916 429.998 766.919 430.142 766.921C430.43 766.924 430.711 766.923 430.984 766.916C431.53 766.902 432.044 766.867 432.522 766.808C435.495 766.448 440.163 764.218 443.953 763.45C444.313 763.377 444.666 763.318 445.009 763.274C445.18 763.252 445.35 763.234 445.516 763.22C445.848 763.193 446.168 763.185 446.475 763.196C447.09 763.218 447.65 763.322 448.138 763.53C448.26 763.583 448.378 763.641 448.49 763.707C448.603 763.773 448.711 763.845 448.814 763.925L464.626 803.046C464.625 803.148 464.613 803.252 464.593 803.358C464.574 803.464 464.546 803.572 464.508 803.681C464.211 804.557 463.37 805.545 462.245 806.556C461.963 806.809 461.663 807.064 461.35 807.318C460.097 808.335 458.622 809.352 457.181 810.279C456.821 810.511 456.463 810.737 456.11 810.956C454.351 812.051 452.745 812.97 451.793 813.537C433.291 824.522 412.58 833.119 394.009 844.214L392.732 845.682C392.721 845.998 392.709 846.403 392.696 846.891C392.69 847.134 392.683 847.399 392.676 847.683C392.619 850.124 392.551 854.065 392.468 859.198L392.466 859.198C392.086 882.747 391.418 931.38 390.286 975.249C368.614 965.81 348.225 953.975 329.454 940.078C318.45 917.39 307.543 894.635 297.272 871.622C297.176 870.276 297.08 869.342 298 868.202C299.272 866.644 319.577 850.83 337.038 837.075C339.92 834.806 342.723 832.591 345.351 830.507C347.343 828.928 349.233 827.423 350.98 826.025C352.026 825.187 353.021 824.387 353.955 823.632C355.541 822.351 356.953 821.2 358.144 820.211L295.858 752.953C295.845 750.688 298.398 749.507 300.1 748.216C304.342 744.985 309.072 741.861 314.017 738.795C315.006 738.182 316.003 737.572 317.007 736.963C317.509 736.658 318.013 736.354 318.518 736.051C328.112 730.284 338.188 724.674 346.875 718.886C352.863 714.895 358.54 710.454 364.428 706.309C364.723 706.102 365.018 705.896 365.314 705.69C365.905 705.279 366.498 704.871 367.094 704.467C369.778 702.65 372.521 700.915 375.37 699.332L373.97 686.534C373.914 686.53 353.824 685.187 346.286 684.735C335.196 684.062 334.372 683.417 336.692 672.335C342.099 646.424 350.856 619.331 355.4 593.654C356.662 586.527 350.527 582.476 347.041 576.956L344.954 576.269C344.276 576.446 343.596 576.621 342.917 576.795C332.73 579.4 322.475 581.674 312.22 584.055C303.923 585.984 295.591 587.814 287.244 589.618C283.071 590.52 278.893 591.415 274.714 592.314C270.536 593.212 266.356 594.113 262.177 595.026C259.106 595.696 255.08 597.052 251.384 598.116C250.644 598.329 249.918 598.529 249.215 598.711C248.337 598.938 247.495 599.134 246.71 599.285C246.396 599.345 246.091 599.398 245.797 599.443C245.649 599.465 245.505 599.485 245.363 599.503C243.297 599.771 242.435 598.999 242.372 597.876C242.364 597.736 242.369 597.59 242.385 597.44C242.442 596.916 242.641 596.341 242.95 595.773C243.038 595.61 243.135 595.449 243.24 595.289C243.503 594.89 243.817 594.502 244.169 594.148C257.942 582.817 271.976 571.794 285.936 560.696C289.038 558.23 292.136 555.76 295.228 553.282C302.956 547.088 310.638 540.844 318.217 534.484C319.553 533.364 323.116 530.884 326.111 528.481C326.443 528.215 326.769 527.948 327.083 527.685C328.972 526.107 330.47 524.634 330.749 523.692C330.635 519.469 330.864 515.274 331.248 511.091C331.28 510.742 331.313 510.393 331.347 510.045C331.381 509.697 331.416 509.348 331.452 509C332.1 502.731 333.03 496.485 333.617 490.214C334.962 475.901 336.316 461.605 337.697 447.314C337.838 445.863 337.98 444.412 338.121 442.961C340.187 421.672 342.319 400.392 344.583 379.084C345.434 371.01 343.389 362.098 350.417 356.111C355.138 352.074 360.162 347.831 364.924 343.877C370.181 339.524 377.141 335.624 382.713 331.477C385.942 330.502 428.817 336.05 447.03 338.233C476.265 326.657 505.473 315.054 534.886 304ZM355.386 487.234L354.15 488.058C353.061 494.185 352.384 500.517 351.993 506.851C351.954 507.484 351.917 508.118 351.883 508.752C351.749 511.285 351.659 513.815 351.604 516.33C351.591 516.958 351.579 517.586 351.57 518.212L620.711 458.522C624.019 456.078 621.082 454.814 620.341 452.988C617.446 445.856 614.297 438.917 611.698 431.707L611.186 430.262L355.386 487.234Z" fill="black"/>
<path d="M743.499 483.595L743.471 483.609C743.472 483.606 743.472 483.603 743.473 483.6L743.499 483.595Z" fill="black"/>
<path d="M134.985 181.191C129.074 181.191 123.547 180.798 118.404 180.011C113.338 179.28 109.078 178.297 105.623 177.06C102.169 175.823 99.3288 174.643 97.1027 173.519C94.9533 172.394 93.1494 171.27 91.6909 170.146L94.5695 149.657C97.7168 152.749 101.939 155.447 107.235 157.751C112.532 160 118.251 161.124 124.392 161.124C130.533 161.124 134.947 160.646 137.633 159.691C140.397 158.735 141.779 156.993 141.779 154.463C141.779 151.765 140.205 149.46 137.058 147.549C133.987 145.638 128.652 143.333 121.053 140.635C118.289 139.623 115.948 138.724 114.029 137.937C112.11 137.094 109.538 135.745 106.314 133.89C103.167 131.979 100.595 130.011 98.5995 127.988C96.6037 125.908 94.8381 123.266 93.3029 120.062C91.7676 116.802 91 113.317 91 109.607C91 89.5395 106.468 79.5059 137.403 79.5059C142.316 79.5059 146.922 79.8994 151.221 80.6863C155.596 81.4171 159.012 82.2321 161.468 83.1315C163.925 84.0309 166.151 85.0989 168.147 86.3355C170.219 87.5159 171.524 88.3591 172.062 88.865C172.599 89.3147 172.983 89.6801 173.213 89.9611L167.456 106.234C164.462 103.648 160.701 101.737 156.172 100.501C151.719 99.2078 147.459 98.5614 143.391 98.5614C133.565 98.5614 128.652 100.81 128.652 105.307C128.652 106.487 128.959 107.555 129.573 108.511C130.187 109.466 131.185 110.338 132.567 111.125C133.949 111.911 135.215 112.586 136.367 113.148C137.595 113.71 139.246 114.413 141.318 115.256C143.467 116.043 145.079 116.689 146.154 117.195C157.362 120.68 165.575 124.812 170.795 129.59C176.092 134.368 178.74 140.186 178.74 147.043C178.74 158.173 174.979 166.661 167.456 172.507C160.01 178.297 149.186 181.191 134.985 181.191Z" fill="#BEBEBE"/>
<path d="M229.054 179.421H190.941V80.602H229.054V119.725H258.646V80.602H296.759V179.421H258.646V139.118H229.054V179.421Z" fill="#BEBEBE"/>
<path d="M393.682 179.421H312.045V80.602H391.955L389.652 100.501L350.158 99.6575V118.713H381.247V138.443L350.158 136.757V159.185L393.682 158.342V179.421Z" fill="#BEBEBE"/>
<path d="M442.02 146.537V179.421H403.793V80.602H418.992C422.676 80.602 428.165 80.4896 435.457 80.2647C442.75 79.9837 448.776 79.8432 453.535 79.8432C470.116 79.8432 482.475 82.5132 490.611 87.8532C498.825 93.1933 502.932 101.372 502.932 112.389C502.932 118.91 500.974 124.699 497.06 129.758C493.221 134.817 488.117 138.836 481.745 141.816C485.2 142.434 488.155 143.867 490.611 146.116C493.145 148.364 495.102 151.034 496.484 154.126C497.866 157.161 499.055 160.253 500.053 163.401C501.128 166.492 502.318 169.556 503.623 172.591C505.005 175.627 506.501 177.903 508.113 179.421H465.625C464.781 178.634 464.128 176.442 463.668 172.844C463.207 169.19 462.555 164.834 461.71 159.775C460.943 154.66 459.83 150.388 458.371 146.959C458.217 146.959 458.026 146.959 457.795 146.959C456.337 146.959 454.763 146.959 453.074 146.959C451.462 146.903 450.042 146.847 448.814 146.79C447.586 146.734 446.281 146.678 444.899 146.622C443.594 146.565 442.635 146.537 442.02 146.537ZM442.02 130.855H445.705C447.624 130.855 449.236 130.798 450.541 130.686C451.846 130.573 453.266 130.377 454.802 130.096C456.414 129.758 457.719 129.253 458.716 128.578C459.791 127.903 460.789 127.032 461.71 125.964C462.631 124.896 463.322 123.519 463.783 121.833C464.243 120.146 464.474 118.179 464.474 115.931V109.27C464.474 104.379 462.708 100.978 459.177 99.0673C455.723 97.0999 450.733 96.1162 444.208 96.1162H442.02V130.855Z" fill="#BEBEBE"/>
<path d="M515.459 179.421V80.602H553.572V156.824H587.885V179.421H515.459Z" fill="#BEBEBE"/>
<path d="M637.478 141.225C637.478 150.556 638.438 157.049 640.357 160.703C642.353 164.356 645.807 166.183 650.72 166.183C654.328 166.183 657.053 165.537 658.895 164.244C660.737 162.895 662.119 160.169 663.04 156.065C664.038 151.906 664.537 145.694 664.537 137.431V117.111C664.537 109.073 663.462 103.086 661.313 99.1516C659.164 95.2168 655.633 93.2495 650.72 93.2495C645.807 93.2495 642.353 95.1887 640.357 99.0673C638.438 102.89 637.478 109.888 637.478 120.062V141.225ZM648.302 181.191C641.93 181.191 636.173 180.77 631.03 179.927C625.964 179.083 621.588 177.903 617.904 176.385C614.219 174.868 610.995 172.928 608.231 170.568C605.545 168.207 603.357 165.677 601.668 162.979C600.056 160.281 598.751 157.133 597.753 153.536C596.755 149.882 596.065 146.256 595.681 142.659C595.297 139.005 595.105 134.902 595.105 130.349C595.105 123.603 595.566 117.729 596.487 112.727C597.485 107.724 599.289 103.03 601.899 98.6457C604.508 94.205 607.963 90.6075 612.262 87.8532C616.637 85.0989 622.241 82.9348 629.073 81.3609C635.981 79.787 644.118 79 653.483 79C659.931 79 665.727 79.4497 670.87 80.3491C676.013 81.1922 680.427 82.3727 684.112 83.8903C687.796 85.408 690.982 87.3754 693.669 89.7925C696.432 92.2096 698.62 94.7953 700.232 97.5496C701.921 100.248 703.264 103.424 704.262 107.077C705.26 110.731 705.951 114.357 706.335 117.954C706.718 121.552 706.91 125.627 706.91 130.18C706.91 136.925 706.411 142.799 705.413 147.802C704.415 152.805 702.612 157.499 700.002 161.883C697.392 166.211 693.899 169.752 689.523 172.507C685.148 175.205 679.506 177.341 672.597 178.915C665.765 180.433 657.667 181.191 648.302 181.191Z" fill="#BEBEBE"/>
<path d="M804.08 172.423L803.044 173.35C802.277 173.912 800.972 174.643 799.129 175.542C797.364 176.385 795.214 177.257 792.681 178.156C790.225 178.999 786.924 179.702 782.779 180.264C778.634 180.882 774.181 181.191 769.422 181.191C759.366 181.191 750.769 179.983 743.63 177.566C736.491 175.093 730.887 171.523 726.819 166.858C722.827 162.136 719.948 156.824 718.183 150.922C716.417 144.963 715.534 138.078 715.534 130.264C715.534 121.945 716.417 114.778 718.183 108.764C719.948 102.693 722.865 97.381 726.934 92.8279C731.079 88.2186 736.759 84.7616 743.975 82.457C751.191 80.1523 759.98 79 770.343 79C775.102 79 779.555 79.3092 783.7 79.9275C787.922 80.5458 791.223 81.2484 793.602 82.0354C796.059 82.8223 798.246 83.7217 800.166 84.7335C802.161 85.7453 803.39 86.4479 803.85 86.8414C804.388 87.2349 804.771 87.5441 805.002 87.7689L803.274 107.162H785.772L779.785 97.128C778.403 96.847 777.252 96.7064 776.331 96.7064C771.188 96.7064 767.234 97.5777 764.471 99.3202C761.707 101.007 759.596 104.351 758.138 109.354C756.679 114.3 755.95 121.439 755.95 130.77C755.95 136.335 756.411 141.197 757.332 145.357C758.33 149.517 759.52 152.721 760.901 154.969C762.283 157.161 763.933 158.932 765.853 160.281C767.772 161.63 769.499 162.501 771.034 162.895C772.569 163.232 774.22 163.401 775.985 163.401C779.9 163.401 784.007 163.063 788.306 162.389C792.604 161.658 796.135 160.562 798.899 159.101L804.08 172.423Z" fill="#BEBEBE"/>
<path d="M879.627 179.421C878.706 178.578 876.71 175.289 873.639 169.556C870.646 163.766 867.115 157.246 863.046 149.994C859.054 142.687 855.523 137.15 852.453 133.384V179.421H814.34V80.602H852.453V127.903L881.124 80.602H919.467L885.154 126.976C887.38 128.1 890.335 131.164 894.02 136.166C897.705 141.169 901.159 146.425 904.383 151.934C907.607 157.442 910.946 162.979 914.401 168.544C917.855 174.053 920.388 177.678 922 179.421H879.627Z" fill="#BEBEBE"/>
<path d="M220.283 302.229H182.17V203.411H220.283V242.533H249.875V203.411H287.988V302.229H249.875V261.926H220.283V302.229Z" fill="#BEBEBE"/>
<path d="M350.829 293.882C354.206 293.882 356.778 292.87 358.543 290.847C360.386 288.767 361.307 285.928 361.307 282.331V255.687C361.307 244.726 357.776 239.245 350.714 239.245C347.413 239.245 344.841 240.229 342.999 242.196C341.157 244.163 340.236 246.946 340.236 250.543V277.946C340.236 288.57 343.767 293.882 350.829 293.882ZM349.908 304C332.329 304 319.471 301.077 311.334 295.231C303.197 289.385 299.129 280.054 299.129 267.238C299.129 254.534 303.236 244.979 311.449 238.571C319.663 232.106 333.02 228.874 351.52 228.874C369.559 228.874 382.57 231.966 390.554 238.149C398.614 244.276 402.644 253.579 402.644 266.058C402.644 278.986 398.383 288.542 389.863 294.725C381.419 300.908 368.1 304 349.908 304Z" fill="#BEBEBE"/>
<path d="M413.921 302.229V203.411H452.034V279.633H486.347V302.229H413.921Z" fill="#BEBEBE"/>
<path d="M526.152 302.229H491.494L502.202 203.411H556.205L566.338 236.547L570.944 253.326L575.319 236.631L584.3 203.411H632.431L642.333 302.229H606.523L600.651 244.135L599.269 222.719L581.652 292.364H551.599L530.413 222.719L529.722 244.135L526.152 302.229Z" fill="#BEBEBE"/>
<path d="M734.056 302.229H652.418V203.411H732.328L730.025 223.309L690.531 222.466V241.522H721.62V261.252L690.531 259.565V281.993L734.056 281.15V302.229Z" fill="#BEBEBE"/>
<path d="M784.697 304C778.786 304 773.259 303.607 768.116 302.82C763.049 302.089 758.789 301.105 755.335 299.869C751.88 298.632 749.04 297.451 746.814 296.327C744.665 295.203 742.861 294.079 741.402 292.955L744.281 272.466C747.428 275.557 751.65 278.255 756.947 280.56C762.243 282.808 767.962 283.933 774.103 283.933C780.244 283.933 784.658 283.455 787.345 282.499C790.108 281.544 791.49 279.801 791.49 277.272C791.49 274.574 789.916 272.269 786.769 270.358C783.699 268.447 778.364 266.142 770.764 263.444C768.001 262.432 765.659 261.533 763.74 260.746C761.821 259.903 759.25 258.553 756.026 256.699C752.878 254.787 750.307 252.82 748.311 250.796C746.315 248.717 744.55 246.075 743.014 242.871C741.479 239.61 740.711 236.125 740.711 232.415C740.711 212.348 756.179 202.314 787.115 202.314C792.027 202.314 796.633 202.708 800.932 203.495C805.307 204.226 808.723 205.041 811.18 205.94C813.636 206.839 815.862 207.907 817.858 209.144C819.931 210.325 821.236 211.168 821.773 211.674C822.31 212.123 822.694 212.489 822.925 212.77L817.167 229.043C814.174 226.457 810.412 224.546 805.883 223.309C801.431 222.016 797.171 221.37 793.102 221.37C783.276 221.37 778.364 223.618 778.364 228.115C778.364 229.296 778.671 230.364 779.285 231.319C779.899 232.275 780.897 233.146 782.279 233.933C783.66 234.72 784.927 235.395 786.078 235.957C787.307 236.519 788.957 237.221 791.03 238.065C793.179 238.852 794.791 239.498 795.866 240.004C807.073 243.489 815.287 247.62 820.506 252.398C825.803 257.176 828.451 262.994 828.451 269.852C828.451 280.982 824.69 289.469 817.167 295.315C809.721 301.105 798.898 304 784.697 304Z" fill="#BEBEBE"/>
</g>
<defs>
<clipPath id="clip0_1608_297">
<rect width="1014" height="1306" fill="white"/>
</clipPath>
</defs>
</svg>
